<svg width="63" height="65" viewBox="0 0 63 65" fill="none" xmlns="http://www.w3.org/2000/svg">
<g filter="url(#filter0_d_79_3710)">
<path d="M59 30.0686C59 37.5129 56.1027 44.6522 50.9454 49.9161C45.7882 55.18 38.7935 58.1372 31.5 58.1372C27.8886 58.1372 24.3127 57.4112 20.9762 56.0006C17.6398 54.59 14.6082 52.5225 12.0546 49.9161C6.89731 44.6522 4 37.5129 4 30.0686C4 22.6243 6.89731 15.485 12.0546 10.2211C17.2118 4.95722 24.2065 2 31.5 2C35.1114 2 38.6873 2.72602 42.0238 4.1366C45.3602 5.54718 48.3918 7.61469 50.9454 10.2211C53.499 12.8275 55.5247 15.9218 56.9067 19.3272C58.2887 22.7327 59 26.3826 59 30.0686ZM37 16.0343L23.25 30.0686L37 44.1029V16.0343Z" fill="white"/>
</g>
<defs>
<filter id="filter0_d_79_3710" x="0" y="0" width="63" height="64.1372" filterUnits="userSpaceOnUse" color-interpolation-filters="sRGB">
<feFlood flood-opacity="0" result="BackgroundImageFix"/>
<feColorMatrix in="SourceAlpha" type="matrix" values="0 0 0 0 0 0 0 0 0 0 0 0 0 0 0 0 0 0 127 0" result="hardAlpha"/>
<feOffset dy="2"/>
<feGaussianBlur stdDeviation="2"/>
<feComposite in2="hardAlpha" operator="out"/>
<feColorMatrix type="matrix" values="0 0 0 0 0 0 0 0 0 0 0 0 0 0 0 0 0 0 0.15 0"/>
<feBlend mode="normal" in2="BackgroundImageFix" result="effect1_dropShadow_79_3710"/>
<feBlend mode="normal" in="SourceGraphic" in2="effect1_dropShadow_79_3710" result="shape"/>
</filter>
</defs>
</svg>
