<svg width="72" height="50" viewBox="0 0 72 50" fill="none" xmlns="http://www.w3.org/2000/svg">
<path d="M51.1664 29.3056C51.6303 29.0378 52.0696 28.8016 52.4891 28.5361C53.7502 27.735 55.0408 26.9727 56.2476 26.101C58.5278 24.4523 60.6254 22.6016 62.2369 20.2785C63.2043 18.8855 63.9817 17.4025 64.1717 15.6955C64.2383 15.0989 64.1766 14.4852 64.1495 13.8788C64.1445 13.7546 64.0508 13.6061 63.9496 13.5233C63.076 12.783 62.4812 11.3852 63.2487 9.99717C63.2685 9.96308 63.2734 9.92168 63.2981 9.83645C63.0044 9.71469 62.7206 9.57101 62.4245 9.47604C61.3066 9.12294 60.1467 9.04502 58.9868 8.99388C58.1552 8.95735 57.3235 8.94518 56.4919 8.94761C55.3345 8.94761 54.3671 8.33882 53.9476 7.27221C53.6317 6.46617 53.2887 5.67961 52.7359 4.99533C51.9166 3.9823 50.8209 3.39299 49.6166 2.95952C47.8176 2.3142 45.9371 2.10478 44.0468 2.03172C41.5 1.93432 38.9508 1.85396 36.4015 1.87344C33.7462 1.89536 31.6091 3.5878 30.8687 6.11064C30.7009 6.68047 30.5627 7.26004 30.4171 7.81038C30.1728 4.80538 31.8632 1.54956 35.4662 0.731344C36.5693 0.480521 37.7193 0.387985 38.8545 0.307624C40.7819 0.171255 42.7117 0.064107 44.6415 0.0105332C46.6503 -0.0454757 48.6443 0.11281 50.584 0.704557C53.2862 1.52764 55.2037 3.22983 56.3808 5.75023C56.4919 5.99131 56.6227 6.04489 56.8719 6.03271C59.0016 5.91826 61.1264 5.90608 63.2142 6.42964C64.0384 6.63663 64.8084 6.95564 65.4549 7.5279C66.4889 8.43866 66.8246 9.6465 66.3779 10.9469C66.3285 11.0906 66.2989 11.1953 66.447 11.3146C68.2534 12.7733 69.4602 14.641 70.2622 16.784C70.8397 18.323 71.2049 19.9132 71.3579 21.5447C71.4591 22.6333 71.501 23.7291 71.538 24.8225C71.6516 28.2074 71.7972 31.5923 71.8342 34.9796C71.8589 37.1274 71.7873 39.285 71.1679 41.3743C70.6546 43.1082 69.7958 44.635 68.2559 45.6943C66.6 46.834 64.759 47.4964 62.7576 47.774C61.0968 48.0053 59.4384 47.9493 57.7727 47.903C54.762 47.8178 51.7512 47.7861 48.7405 47.7107C46.1814 47.6449 43.6248 47.5158 41.0657 47.4866C40.3747 47.4793 39.6812 47.7277 38.9902 47.8641C36.7051 48.3121 34.4322 48.8308 32.1347 49.1961C28.5465 49.7659 24.9238 49.9534 21.2912 49.9364C20.3978 49.9315 19.507 49.99 18.6136 49.9997C17.1675 50.0143 15.9657 49.4567 15.0427 48.3779C14.6207 47.886 14.2999 47.3113 13.9223 46.7804C13.8532 46.683 13.7471 46.5613 13.641 46.5418C11.1115 46.0767 8.96452 44.8859 7.06185 43.2178C5.02592 41.4304 3.58719 39.2314 2.52603 36.7792C1.11939 33.5112 0.652975 30.0946 0.902222 26.5734C1.10458 23.7291 1.81531 21.0066 3.15039 18.4764C4.48547 15.9487 6.2302 13.7327 8.66839 12.1206C9.83566 11.3487 11.072 10.7228 12.4293 10.3357C12.5873 10.2918 12.7353 10.1798 12.8636 10.0702C13.6114 9.43708 14.3196 8.75036 15.1044 8.16835C16.5802 7.07496 18.2977 6.6415 20.1214 6.54166C21.5552 6.46374 22.9397 6.73404 24.3389 6.96782C29.5781 7.84691 34.2842 9.91681 38.5312 13.0484C38.8249 13.2652 39.2148 13.3601 39.5677 13.4916C43.531 14.9674 46.7539 17.3465 48.9009 21.0066C49.9448 22.7867 50.579 24.7226 50.8826 26.7584C51.006 27.5791 51.0677 28.4095 51.1664 29.3056ZM7.80466 38.7955C7.8318 38.7249 7.83921 38.7127 7.83674 38.7078C7.64178 38.3986 7.44929 38.0869 7.2494 37.78C5.62312 35.3035 4.65575 32.5882 4.27077 29.6758C3.9845 27.5158 4.07828 25.3655 4.59652 23.2372C5.32205 20.2638 6.81754 17.7069 8.97933 15.5469C9.88995 14.6362 10.9338 13.8496 11.9481 13.0436C12.3207 12.7489 12.7847 12.5638 13.2067 12.3276C13.2215 12.3544 13.2388 12.3788 13.2536 12.4056C13.182 12.4543 13.1129 12.5054 13.0389 12.5541C12.3972 12.9681 11.7309 13.3553 11.114 13.8009C9.09038 15.2644 7.52333 17.1249 6.38321 19.3239C5.20113 21.6008 4.64094 24.0408 4.6286 26.5929C4.61873 28.6774 4.97903 30.7059 5.68235 32.6759C6.3067 34.4195 7.15563 36.0413 8.29822 37.5097C8.54006 37.8214 8.81646 38.1063 9.07557 38.4034C9.09532 38.3864 9.11506 38.3718 9.1348 38.3547C9.06323 38.2451 8.9892 38.1356 8.92257 38.0235C8.43395 37.2151 7.9009 36.4285 7.4715 35.5908C6.44984 33.6061 5.83042 31.4924 5.52688 29.2837C5.17892 26.7511 5.38375 24.2648 6.14383 21.8248C7.27161 18.2159 9.51484 15.4057 12.5256 13.1288C13.5028 12.3885 14.5294 11.8747 15.7831 11.8771C15.8645 11.8771 15.9435 11.8357 16.0249 11.8114C15.941 11.7505 15.8645 11.7359 15.788 11.7359C13.7224 11.7261 11.8148 12.2862 10.0454 13.3187C8.00208 14.5095 6.41035 16.1557 5.16411 18.1306C3.52549 20.729 2.53344 23.5562 2.27432 26.6099C2.0078 29.7561 2.46928 32.8001 3.75006 35.7077C4.49287 37.3904 5.50714 38.8905 6.86689 40.1519C7.97494 41.1795 9.23598 41.9685 10.6624 42.4775C11.3237 42.7137 12.0147 42.8622 12.6934 43.0522C12.6958 42.9791 12.6835 42.9645 12.6662 42.9596C12.5996 42.9353 12.5305 42.9134 12.4614 42.8939C11.1313 42.5043 9.89242 41.9296 8.75723 41.143C6.9434 39.8865 5.65027 38.2111 4.69523 36.2605C3.88826 34.6119 3.41444 32.8634 3.15286 31.0565C2.89127 29.2594 2.83698 27.4525 3.16026 25.6626C3.37002 24.4986 3.69084 23.3516 3.99931 22.2095C4.12764 21.7347 4.35467 21.2842 4.53729 20.8215C3.36755 23.8898 3.08623 27.0239 3.6859 30.2407C4.28311 33.443 5.57623 36.3189 7.81206 38.7955H7.80466ZM26.861 46.4371C26.8783 46.459 26.8931 46.4809 26.9104 46.5052C27.3422 46.2398 27.784 45.9914 28.201 45.7089C31.651 43.3687 34.4075 40.4198 36.2929 36.7086C38.282 32.7928 38.9952 28.6774 38.3067 24.3403C37.8353 21.3743 36.7618 18.6274 35.0985 16.1216C33.3982 13.5598 31.2512 11.4047 28.7217 9.62459C28.5021 9.46874 28.2603 9.34211 28.0283 9.20087C28.1023 9.34698 28.201 9.44682 28.3096 9.53936C30.0617 10.9956 31.6091 12.6442 32.9737 14.4584C34.5334 16.5332 35.7624 18.7808 36.5422 21.255C37.3936 23.9507 37.6305 26.6976 37.2406 29.4907C36.9025 31.9088 36.1695 34.2076 35.059 36.392C33.2625 39.9205 30.8983 43.0181 27.8605 45.6018C27.5298 45.8843 27.1942 46.1595 26.861 46.4395V46.4371ZM9.03609 42.212C11.8518 43.8168 14.8848 44.3842 18.1003 43.9142C21.3282 43.4418 24.0304 41.9539 26.2712 39.621C24.7461 41.5789 22.7546 42.9109 20.4423 43.7632C16.6172 45.1756 12.8291 44.8932 9.08545 43.3907C12.3281 45.4825 18.1225 46.2666 23.0803 43.3517C28.1443 40.3711 30.116 34.8773 29.7434 29.9777C29.0425 34.8359 27.0782 38.9416 22.6682 41.5083C18.278 44.0652 13.6928 44.0335 9.03609 42.212ZM18.6827 46.4687C18.8086 46.4614 18.8875 46.4663 18.964 46.4517C20.1856 46.2203 21.3331 45.7723 22.4066 45.1708C24.7313 43.868 26.5427 42.0221 28.011 39.8377C28.9858 38.3888 29.7656 36.8401 30.3678 35.2036C31.2043 32.9292 31.693 30.589 31.7744 28.166C31.8756 25.1293 31.3771 22.2096 30.0346 19.4578C28.5761 16.4699 26.5106 13.9957 23.643 12.2229C23.0581 11.8625 22.4313 11.5679 21.8242 11.244C21.807 11.2756 21.7897 11.3073 21.7699 11.3389C22.1969 11.5946 22.6361 11.8309 23.0483 12.1109C24.9485 13.3967 26.476 15.0404 27.6853 16.9691C29.5682 19.9668 30.5701 23.2396 30.7971 26.756C31.0316 30.3893 30.4887 33.8911 28.9808 37.2297C27.9518 39.5066 26.5525 41.5278 24.6671 43.2007C23.3666 44.355 21.9303 45.3047 20.2819 45.9111C19.7686 46.0986 19.2503 46.2739 18.6852 46.4736L18.6827 46.4687ZM24.028 24.0213C23.2358 22.7404 21.6465 22.156 20.309 23.527C19.3885 24.4718 19.0924 25.6431 19.0973 26.9046C19.0998 27.9906 19.354 29.0183 20.0425 29.8974C20.504 30.4867 21.0814 30.9226 21.8711 30.9518C22.9027 30.9883 23.569 30.4015 24.0946 29.61C24.1711 29.4956 24.2254 29.3641 24.3192 29.179C23.1149 29.7756 22.2314 29.6149 21.5503 28.6506C20.7655 27.5377 20.6619 26.3323 21.2838 25.1123C21.7798 24.1382 22.6312 23.5075 24.028 24.0189V24.0213ZM21.8292 33.6159C21.8119 33.594 21.7921 33.5745 21.7749 33.5526C21.7033 33.5915 21.6317 33.6281 21.5602 33.6695C21.4985 33.7036 21.4368 33.7425 21.3751 33.7766C20.3435 34.3464 19.2503 34.5583 18.0806 34.3367C16.363 34.0128 15.1266 33.0193 14.2308 31.5874C13.1943 29.929 12.7871 28.1148 12.9401 26.1764C13.0956 24.1893 13.7447 22.4044 15.1636 20.9311C16.6048 19.4359 18.9961 18.754 21.0913 19.7866C21.3282 19.9034 21.5626 20.0301 21.7995 20.1518C21.5404 19.9278 21.2542 19.7549 20.9556 19.6039C19.6624 18.9562 18.3224 18.905 16.9873 19.414C15.3561 20.0349 14.2209 21.2257 13.4658 22.7453C12.3701 24.9516 12.2294 27.2577 12.9303 29.61C13.3621 31.0638 14.1222 32.3106 15.3142 33.292C17.0564 34.7288 18.9566 35.0064 21.0271 34.0981C21.3109 33.9739 21.5626 33.7766 21.8292 33.6135V33.6159ZM24.6079 26.8315C24.6005 26.2592 24.4549 25.8136 24.1193 25.4435C23.5986 24.8663 22.873 24.8785 22.3647 25.4654C21.7206 26.2057 21.7675 27.4744 22.4634 28.166C22.8656 28.5653 23.3567 28.6335 23.833 28.3267C24.4031 27.959 24.5561 27.3794 24.6079 26.8339V26.8315ZM13.9914 20.8678C12.2171 22.341 10.6031 25.3217 11.1633 28.6676C11.5187 30.7862 13.6509 33.8375 15.2179 34.2807C12.9994 32.6418 11.5532 30.6011 11.3657 27.8665C11.1806 25.161 12.1776 22.8597 13.9939 20.8702L13.9914 20.8678Z" fill="#1D1D1D"/>
</svg>
