<svg width="63" height="65" viewBox="0 0 63 65" fill="none" xmlns="http://www.w3.org/2000/svg">
<g filter="url(#filter0_d_79_3712)">
<path d="M4 30.0686C4 22.6243 6.89732 15.485 12.0546 10.2211C17.2118 4.95721 24.2066 1.99999 31.5 1.99999C35.1114 1.99999 38.6873 2.726 42.0238 4.13658C45.3603 5.54716 48.3918 7.61468 50.9454 10.2211C56.1027 15.485 59 22.6243 59 30.0686C59 37.5129 56.1027 44.6522 50.9454 49.9161C45.7882 55.18 38.7935 58.1372 31.5 58.1372C27.8886 58.1372 24.3127 57.4112 20.9762 56.0006C17.6398 54.59 14.6082 52.5225 12.0546 49.9161C9.50095 47.3097 7.47532 44.2154 6.09331 40.81C4.71131 37.4045 4 33.7546 4 30.0686ZM26 44.1029L39.75 30.0686L26 16.0343L26 44.1029Z" fill="white"/>
</g>
<defs>
<filter id="filter0_d_79_3712" x="0" y="0" width="63" height="64.1372" filterUnits="userSpaceOnUse" color-interpolation-filters="sRGB">
<feFlood flood-opacity="0" result="BackgroundImageFix"/>
<feColorMatrix in="SourceAlpha" type="matrix" values="0 0 0 0 0 0 0 0 0 0 0 0 0 0 0 0 0 0 127 0" result="hardAlpha"/>
<feOffset dy="2"/>
<feGaussianBlur stdDeviation="2"/>
<feComposite in2="hardAlpha" operator="out"/>
<feColorMatrix type="matrix" values="0 0 0 0 0 0 0 0 0 0 0 0 0 0 0 0 0 0 0.15 0"/>
<feBlend mode="normal" in2="BackgroundImageFix" result="effect1_dropShadow_79_3712"/>
<feBlend mode="normal" in="SourceGraphic" in2="effect1_dropShadow_79_3712" result="shape"/>
</filter>
</defs>
</svg>
