<svg width="37" height="37" viewBox="0 0 37 37" fill="none" xmlns="http://www.w3.org/2000/svg">
<circle cx="18.1618" cy="18.1618" r="18.1618" fill="#1D1D1D"/>
<path d="M24.2153 23.3628C23.2716 23.3628 22.4271 23.7415 21.7814 24.3348L12.9271 19.0958C12.9892 18.8055 13.0389 18.5151 13.0389 18.2122C13.0389 17.9092 12.9892 17.6188 12.9271 17.3285L21.682 12.14C22.3526 12.7712 23.2343 13.1625 24.2153 13.1625C26.2768 13.1625 27.9408 11.4709 27.9408 9.37534C27.9408 7.27975 26.2768 5.58813 24.2153 5.58813C22.1539 5.58813 20.4899 7.27975 20.4899 9.37534C20.4899 9.67832 20.5395 9.96867 20.6016 10.259L11.8467 15.4475C11.1761 14.8163 10.2944 14.425 9.31338 14.425C7.25194 14.425 5.58789 16.1166 5.58789 18.2122C5.58789 20.3077 7.25194 21.9994 9.31338 21.9994C10.2944 21.9994 11.1761 21.608 11.8467 20.9768L20.6885 26.2284C20.6265 26.4935 20.5892 26.7712 20.5892 27.049C20.5892 29.0814 22.216 30.7352 24.2153 30.7352C26.2147 30.7352 27.8415 29.0814 27.8415 27.049C27.8415 25.0165 26.2147 23.3628 24.2153 23.3628Z" fill="white"/>
</svg>
